<svg width="116" height="394" viewBox="0 0 116 394" fill="none" xmlns="http://www.w3.org/2000/svg">
<path d="M1.63593 109.515L1.7191 73.9947L58.7434 46.6074L1.80714 36.3948L1.89031 0.874881L115.123 21.1386L115.04 56.6585L57.0561 83.8836L114.952 94.2584L114.869 129.778L1.63593 109.515ZM114.748 181.346L1.51518 161.082L1.59835 125.562L114.831 145.826L114.748 181.346ZM60.3316 256.622L1.21837 287.844L1.31727 245.604L50.6541 221.399L1.39445 212.644L1.47762 177.124L114.71 197.388L114.627 232.908L66.9673 224.317L114.551 265.388L114.457 305.548L60.3316 256.622ZM86.1962 348.663L72.1219 346.231L72.0394 381.431L45.3307 376.568L45.4132 341.368L29.42 338.451L29.3263 378.451L1.01798 373.425L1.19481 297.905L114.428 318.169L114.251 393.689L86.1025 388.663L86.1962 348.663Z" fill="black" fill-opacity="0.1"/>
</svg>
